<?xml version="1.0" encoding="UTF-8" standalone="no"?>
<!-- Created with Inkscape (http://www.inkscape.org/) -->

<svg
   version="1.1"
   id="svg1"
   width="130"
   height="150.112"
   viewBox="0 0 130 150.112"
   sodipodi:docname="RG-Logo.svg"
   inkscape:version="1.4 (86a8ad7, 2024-10-11)"
   xmlns:inkscape="http://www.inkscape.org/namespaces/inkscape"
   xmlns:sodipodi="http://sodipodi.sourceforge.net/DTD/sodipodi-0.dtd"
   xmlns="http://www.w3.org/2000/svg"
   xmlns:svg="http://www.w3.org/2000/svg">
  <defs
     id="defs1">
    <clipPath
       clipPathUnits="userSpaceOnUse"
       id="clipPath18">
      <path
         d="M 0,313.732 H 612 V 0 H 0 Z"
         transform="translate(-289.24011,-182.36641)"
         id="path18" />
    </clipPath>
    <clipPath
       clipPathUnits="userSpaceOnUse"
       id="clipPath20">
      <path
         d="M 0,313.732 H 612 V 0 H 0 Z"
         transform="translate(-305.15901,-180.1798)"
         id="path20" />
    </clipPath>
    <clipPath
       clipPathUnits="userSpaceOnUse"
       id="clipPath22">
      <path
         d="M 0,313.732 H 612 V 0 H 0 Z"
         transform="translate(-351.24631,-180.3985)"
         id="path22" />
    </clipPath>
    <clipPath
       clipPathUnits="userSpaceOnUse"
       id="clipPath24">
      <path
         d="M 0,313.732 H 612 V 0 H 0 Z"
         transform="translate(-367.63641,-178.1035)"
         id="path24" />
    </clipPath>
    <clipPath
       clipPathUnits="userSpaceOnUse"
       id="clipPath26">
      <path
         d="M 0,313.732 H 612 V 0 H 0 Z"
         transform="translate(-388.91141,-169.7605)"
         id="path26" />
    </clipPath>
    <clipPath
       clipPathUnits="userSpaceOnUse"
       id="clipPath28">
      <path
         d="M 0,313.732 H 612 V 0 H 0 Z"
         transform="translate(-394.48441,-180.1798)"
         id="path28" />
    </clipPath>
    <clipPath
       clipPathUnits="userSpaceOnUse"
       id="clipPath30">
      <path
         d="M 0,313.732 H 612 V 0 H 0 Z"
         transform="translate(-303.19481,-151.88851)"
         id="path30" />
    </clipPath>
    <clipPath
       clipPathUnits="userSpaceOnUse"
       id="clipPath32">
      <path
         d="M 0,313.732 H 612 V 0 H 0 Z"
         transform="translate(-324.10511,-137.49751)"
         id="path32" />
    </clipPath>
    <clipPath
       clipPathUnits="userSpaceOnUse"
       id="clipPath34">
      <path
         d="M 0,313.732 H 612 V 0 H 0 Z"
         transform="translate(-340.82501,-146.6426)"
         id="path34" />
    </clipPath>
    <clipPath
       clipPathUnits="userSpaceOnUse"
       id="clipPath36">
      <path
         d="M 0,313.732 H 612 V 0 H 0 Z"
         transform="translate(-363.41111,-155.897)"
         id="path36" />
    </clipPath>
    <clipPath
       clipPathUnits="userSpaceOnUse"
       id="clipPath38">
      <path
         d="M 0,313.732 H 612 V 0 H 0 Z"
         transform="translate(-378.12921,-146.6426)"
         id="path38" />
    </clipPath>
    <clipPath
       clipPathUnits="userSpaceOnUse"
       id="clipPath40">
      <path
         d="M 0,313.732 H 612 V 0 H 0 Z"
         id="path40" />
    </clipPath>
    <clipPath
       clipPathUnits="userSpaceOnUse"
       id="clipPath42">
      <path
         d="M 0,313.732 H 612 V 0 H 0 Z"
         transform="translate(-410.40601,-146.6426)"
         id="path42" />
    </clipPath>
    <clipPath
       clipPathUnits="userSpaceOnUse"
       id="clipPath44">
      <path
         d="M 0,313.732 H 612 V 0 H 0 Z"
         transform="translate(-438.09201,-148.7189)"
         id="path44" />
    </clipPath>
    <clipPath
       clipPathUnits="userSpaceOnUse"
       id="clipPath46">
      <path
         d="M 0,313.732 H 612 V 0 H 0 Z"
         transform="translate(-232.90051,-118.2145)"
         id="path46" />
    </clipPath>
    <clipPath
       clipPathUnits="userSpaceOnUse"
       id="clipPath48">
      <path
         d="M 0,313.732 H 612 V 0 H 0 Z"
         transform="translate(-246.85411,-147.091)"
         id="path48" />
    </clipPath>
    <clipPath
       clipPathUnits="userSpaceOnUse"
       id="clipPath50">
      <path
         d="M 0,313.732 H 612 V 0 H 0 Z"
         transform="translate(-196.9494,-212.9399)"
         id="path50" />
    </clipPath>
    <clipPath
       clipPathUnits="userSpaceOnUse"
       id="clipPath52">
      <path
         d="M 0,313.732 H 612 V 0 H 0 Z"
         transform="translate(-164.8224,-194.48521)"
         id="path52" />
    </clipPath>
    <clipPath
       clipPathUnits="userSpaceOnUse"
       id="clipPath54">
      <path
         d="M 0,313.732 H 612 V 0 H 0 Z"
         transform="translate(-164.8224,-157.5194)"
         id="path54" />
    </clipPath>
    <clipPath
       clipPathUnits="userSpaceOnUse"
       id="clipPath56">
      <path
         d="M 0,313.732 H 612 V 0 H 0 Z"
         transform="translate(-182.8615,-147.1045)"
         id="path56" />
    </clipPath>
  </defs>
  <sodipodi:namedview
     id="namedview1"
     pagecolor="#c0c0c0"
     bordercolor="#000000"
     borderopacity="0.25"
     inkscape:showpageshadow="2"
     inkscape:pageopacity="0.0"
     inkscape:pagecheckerboard="true"
     inkscape:deskcolor="#212121"
     inkscape:zoom="1"
     inkscape:cx="262"
     inkscape:cy="253.5"
     inkscape:window-width="1920"
     inkscape:window-height="1009"
     inkscape:window-x="-8"
     inkscape:window-y="-8"
     inkscape:window-maximized="1"
     inkscape:current-layer="g2">
    <inkscape:page
       x="0"
       y="0"
       inkscape:label="1"
       id="page1"
       width="130"
       height="150.112"
       margin="143.68933 231.87733 120.45467 219.76266"
       bleed="0" />
  </sodipodi:namedview>
  <g
     id="g1"
     inkscape:groupmode="layer"
     inkscape:label="1"
     transform="translate(217.76211,143.69114)">
    <g
       id="group-MC0"
       style="display:inline">
      <g
         id="group-MC1" />
    </g>
    <g
       id="g56"
       inkscape:export-filename="G.png"
       inkscape:export-xdpi="1525.1499"
       inkscape:export-ydpi="1525.1499"
       style="display:inline">
      <g
         id="g2">
        <g
           id="g3"
           transform="matrix(0.97369744,0,0,0.97369744,-219.71004,-143.68945)"
           style="stroke-width:1.02701">
          <path
             id="path3"
             d="m 92.94068,13.93413 -0.024,0.0133 -24.028,13.87334 -0.0693,0.04 42.59466,24.592 v -0.08 -27.74534 -0.028 z"
             style="fill:#a6319e;fill-opacity:1;fill-rule:nonzero;stroke:none;stroke-width:1.36935" />
          <path
             id="path4"
             d="m 68.88868,0.04759 -0.024,0.0133 -0.108,-0.0627 -24.028,13.87333 0.108,0.0627 24.052,13.88666 24.028,-13.87333 0.024,-0.0133 z"
             style="fill:#8d198f;fill-opacity:1;fill-rule:nonzero;stroke:none;stroke-width:1.36935" />
          <path
             id="path5"
             d="M 26.05268,101.71466 2.00068,87.82799 V 66.43866 l 24.052,-13.88667 z"
             style="fill:#68329a;fill-opacity:1;fill-rule:nonzero;stroke:none;stroke-width:1.36935" />
          <path
             id="path6"
             d="m 135.46695,87.81199 v 0.056 l 0.0453,0.0267 v -0.10934 z"
             style="fill:#231f20;fill-opacity:1;fill-rule:nonzero;stroke:none;stroke-width:1.36935" />
          <path
             id="path7"
             d="m 135.41775,87.83959 0.0493,0.0293 v -0.0573 z"
             style="fill:#231f20;fill-opacity:1;fill-rule:nonzero;stroke:none;stroke-width:1.36935" />
          <path
             id="path9"
             d="m 111.41455,101.75479 2.7e-4,27.78187 24.0024,-13.9232 z"
             style="fill:#272b69;fill-opacity:1;fill-rule:nonzero;stroke:none;stroke-width:1.36935"
             sodipodi:nodetypes="cccc" />
          <path
             id="path10"
             d="m 111.36495,101.72599 0.0107,0.007 0.0387,-0.0227 v -0.012 z"
             style="fill:#231f20;fill-opacity:1;fill-rule:nonzero;stroke:none;stroke-width:1.36935" />
          <path
             id="path11"
             d="m 111.37575,101.73319 0.0387,0.0213 v -0.044 z"
             style="fill:#231f20;fill-opacity:1;fill-rule:nonzero;stroke:none;stroke-width:1.36935" />
          <path
             id="path12"
             d="m 111.41455,73.98186 v 27.716 l 24.00267,-13.85733 z"
             style="fill:#1c1d44;fill-opacity:1;fill-rule:nonzero;stroke:none;stroke-width:1.36935" />
          <path
             id="path13"
             d="m 135.46655,87.86826 -0.0493,-0.028 -24.00267,13.85733 v 0.0133 0.044 l 24.00267,13.85733 0.0493,-0.028 0.0453,-0.0267 V 87.89486 Z"
             style="fill:#232555;fill-opacity:1;fill-rule:nonzero;stroke:none;stroke-width:1.36935" />
          <path
             id="path14"
             d="m 135.46695,38.58199 0.0453,-0.0267 v -0.016 l -0.0453,-0.0253 z"
             style="fill:#231f20;fill-opacity:1;fill-rule:nonzero;stroke:none;stroke-width:1.36935" />
          <path
             id="path15"
             d="m 111.41455,24.59986 v 0.028 27.74533 l 0.0827,0.048 23.96933,-13.83866 v -0.0693 -0.0267 z"
             style="fill:#c045aa;fill-opacity:1;fill-rule:nonzero;stroke:none;stroke-width:1.36935" />
          <path
             id="path16"
             d="m 92.78402,63.22559 -24.052,13.88667 42.63333,24.61466 0.0493,-0.0293 v -27.716 z"
             style="fill:#25296a;fill-opacity:1;fill-rule:nonzero;stroke:none;stroke-width:1.36935" />
          <path
             id="path45"
             d="M 0,0 -18.039,10.415 -36.078,0 l -0.015,-0.008 18.039,-10.415 0.043,-0.025 0.014,0.008 18.04,10.415 z"
             style="fill:#392972;fill-opacity:1;fill-rule:nonzero;stroke:none;stroke-width:1.02701"
             transform="matrix(1.3333333,0,0,-1.3333333,92.77135,140.23466)"
             clip-path="url(#clipPath46)" />
          <path
             id="path47"
             d="m 0,0 -0.008,0.005 -31.965,-18.455 -0.02,-0.012 18.039,-10.414 0.043,-0.025 13.94,8.048 v 0.049 20.787 z"
             style="fill:#31338b;fill-opacity:1;fill-rule:nonzero;stroke:none;stroke-width:1.02701"
             transform="matrix(1.3333333,0,0,-1.3333333,111.37615,101.73266)"
             clip-path="url(#clipPath48)" />
          <path
             id="path49"
             d="M 0,0 -0.081,0.047 -14.088,-8.04 v -0.094 -20.829 l 0.035,0.02 32.04,18.498 0.052,0.03 z"
             style="fill:#761f85;fill-opacity:1;fill-rule:nonzero;stroke:none;stroke-width:1.02701"
             transform="matrix(1.3333333,0,0,-1.3333333,44.83655,13.93413)"
             clip-path="url(#clipPath50)" />
          <path
             id="path51"
             d="m 0,0 v -0.094 -20.83 l 18.039,10.415 v 20.83 0.094 z"
             style="fill:#6c2075;fill-opacity:1;fill-rule:nonzero;stroke:none;stroke-width:1.02701"
             transform="matrix(1.3333333,0,0,-1.3333333,2.00055,38.54039)"
             clip-path="url(#clipPath52)" />
          <path
             id="path53"
             d="m 0,0 v -20.83 -0.017 l 18.039,-10.415 v 0.017 20.83 z"
             style="fill:#5e2590;fill-opacity:1;fill-rule:nonzero;stroke:none;stroke-width:1.02701"
             transform="matrix(1.3333333,0,0,-1.3333333,2.00055,87.82813)"
             clip-path="url(#clipPath54)" />
          <path
             id="path55"
             d="m 0,0 v -20.83 -0.017 l 13.946,-8.051 0.015,0.008 L 32,-18.475 Z"
             style="fill:#4a287e;fill-opacity:1;fill-rule:nonzero;stroke:none;stroke-width:1.02701"
             transform="matrix(1.3333333,0,0,-1.3333333,26.05268,101.71466)"
             clip-path="url(#clipPath56)" />
        </g>
      </g>
    </g>
    <g
       id="group-MC3"
       style="display:inline" />
  </g>
</svg>
