<?xml version="1.0" encoding="UTF-8" standalone="no"?>
<!-- Created with Inkscape (http://www.inkscape.org/) -->

<svg
   version="1.1"
   id="svg1"
   width="365"
   height="155"
   viewBox="0 0 365 155"
   sodipodi:docname="remoteGuardianLogo_darkmode.svg"
   inkscape:version="1.4 (86a8ad7, 2024-10-11)"
   xmlns:inkscape="http://www.inkscape.org/namespaces/inkscape"
   xmlns:sodipodi="http://sodipodi.sourceforge.net/DTD/sodipodi-0.dtd"
   xmlns="http://www.w3.org/2000/svg"
   xmlns:svg="http://www.w3.org/2000/svg">
  <defs
     id="defs1">
    <clipPath
       clipPathUnits="userSpaceOnUse"
       id="clipPath18">
      <path
         d="M 0,313.732 H 612 V 0 H 0 Z"
         transform="translate(-289.24011,-182.36641)"
         id="path18" />
    </clipPath>
    <clipPath
       clipPathUnits="userSpaceOnUse"
       id="clipPath20">
      <path
         d="M 0,313.732 H 612 V 0 H 0 Z"
         transform="translate(-305.15901,-180.1798)"
         id="path20" />
    </clipPath>
    <clipPath
       clipPathUnits="userSpaceOnUse"
       id="clipPath22">
      <path
         d="M 0,313.732 H 612 V 0 H 0 Z"
         transform="translate(-351.24631,-180.3985)"
         id="path22" />
    </clipPath>
    <clipPath
       clipPathUnits="userSpaceOnUse"
       id="clipPath24">
      <path
         d="M 0,313.732 H 612 V 0 H 0 Z"
         transform="translate(-367.63641,-178.1035)"
         id="path24" />
    </clipPath>
    <clipPath
       clipPathUnits="userSpaceOnUse"
       id="clipPath26">
      <path
         d="M 0,313.732 H 612 V 0 H 0 Z"
         transform="translate(-388.91141,-169.7605)"
         id="path26" />
    </clipPath>
    <clipPath
       clipPathUnits="userSpaceOnUse"
       id="clipPath28">
      <path
         d="M 0,313.732 H 612 V 0 H 0 Z"
         transform="translate(-394.48441,-180.1798)"
         id="path28" />
    </clipPath>
    <clipPath
       clipPathUnits="userSpaceOnUse"
       id="clipPath30">
      <path
         d="M 0,313.732 H 612 V 0 H 0 Z"
         transform="translate(-303.19481,-151.88851)"
         id="path30" />
    </clipPath>
    <clipPath
       clipPathUnits="userSpaceOnUse"
       id="clipPath32">
      <path
         d="M 0,313.732 H 612 V 0 H 0 Z"
         transform="translate(-324.10511,-137.49751)"
         id="path32" />
    </clipPath>
    <clipPath
       clipPathUnits="userSpaceOnUse"
       id="clipPath34">
      <path
         d="M 0,313.732 H 612 V 0 H 0 Z"
         transform="translate(-340.82501,-146.6426)"
         id="path34" />
    </clipPath>
    <clipPath
       clipPathUnits="userSpaceOnUse"
       id="clipPath36">
      <path
         d="M 0,313.732 H 612 V 0 H 0 Z"
         transform="translate(-363.41111,-155.897)"
         id="path36" />
    </clipPath>
    <clipPath
       clipPathUnits="userSpaceOnUse"
       id="clipPath38">
      <path
         d="M 0,313.732 H 612 V 0 H 0 Z"
         transform="translate(-378.12921,-146.6426)"
         id="path38" />
    </clipPath>
    <clipPath
       clipPathUnits="userSpaceOnUse"
       id="clipPath40">
      <path
         d="M 0,313.732 H 612 V 0 H 0 Z"
         id="path40" />
    </clipPath>
    <clipPath
       clipPathUnits="userSpaceOnUse"
       id="clipPath42">
      <path
         d="M 0,313.732 H 612 V 0 H 0 Z"
         transform="translate(-410.40601,-146.6426)"
         id="path42" />
    </clipPath>
    <clipPath
       clipPathUnits="userSpaceOnUse"
       id="clipPath44">
      <path
         d="M 0,313.732 H 612 V 0 H 0 Z"
         transform="translate(-438.09201,-148.7189)"
         id="path44" />
    </clipPath>
    <clipPath
       clipPathUnits="userSpaceOnUse"
       id="clipPath46">
      <path
         d="M 0,313.732 H 612 V 0 H 0 Z"
         transform="translate(-232.90051,-118.2145)"
         id="path46" />
    </clipPath>
    <clipPath
       clipPathUnits="userSpaceOnUse"
       id="clipPath48">
      <path
         d="M 0,313.732 H 612 V 0 H 0 Z"
         transform="translate(-246.85411,-147.091)"
         id="path48" />
    </clipPath>
    <clipPath
       clipPathUnits="userSpaceOnUse"
       id="clipPath50">
      <path
         d="M 0,313.732 H 612 V 0 H 0 Z"
         transform="translate(-196.9494,-212.9399)"
         id="path50" />
    </clipPath>
    <clipPath
       clipPathUnits="userSpaceOnUse"
       id="clipPath52">
      <path
         d="M 0,313.732 H 612 V 0 H 0 Z"
         transform="translate(-164.8224,-194.48521)"
         id="path52" />
    </clipPath>
    <clipPath
       clipPathUnits="userSpaceOnUse"
       id="clipPath54">
      <path
         d="M 0,313.732 H 612 V 0 H 0 Z"
         transform="translate(-164.8224,-157.5194)"
         id="path54" />
    </clipPath>
    <clipPath
       clipPathUnits="userSpaceOnUse"
       id="clipPath56">
      <path
         d="M 0,313.732 H 612 V 0 H 0 Z"
         transform="translate(-182.8615,-147.1045)"
         id="path56" />
    </clipPath>
  </defs>
  <sodipodi:namedview
     id="namedview1"
     pagecolor="#000000"
     bordercolor="#000000"
     borderopacity="0.25"
     inkscape:showpageshadow="2"
     inkscape:pageopacity="0.0"
     inkscape:pagecheckerboard="true"
     inkscape:deskcolor="#212121"
     inkscape:zoom="1.9480099"
     inkscape:cx="172.99707"
     inkscape:cy="97.278766"
     inkscape:window-width="1920"
     inkscape:window-height="1009"
     inkscape:window-x="-8"
     inkscape:window-y="-8"
     inkscape:window-maximized="1"
     inkscape:current-layer="g1">
    <inkscape:page
       x="0"
       y="0"
       inkscape:label="1"
       id="page1"
       width="365"
       height="155"
       margin="143.68933 231.87733 120.45467 219.76266"
       bleed="0" />
  </sodipodi:namedview>
  <g
     id="g1"
     inkscape:groupmode="layer"
     inkscape:label="1">
    <g
       id="group-MC0"
       style="display:inline">
      <g
         id="group-MC1" />
    </g>
    <circle
       style="opacity:0.303846;fill:none;stroke:none;stroke-width:1;stroke-linecap:round;stroke-linejoin:round"
       id="path57"
       cx="287.25653"
       cy="225.27762"
       r="94.385483"
       inkscape:label="circle"
       inkscape:export-filename="G.png"
       inkscape:export-xdpi="124.54"
       inkscape:export-ydpi="124.54" />
    <g
       id="g2"
       transform="translate(-221.49746,-147.77762)"
       style="fill:#cccccc;fill-opacity:1">
      <path
         id="path17"
         d="M 0,0 C 2.15,0 3.534,1.166 3.534,2.951 3.534,4.699 2.15,5.865 0,5.865 H -5.683 V 0 Z m 3.425,-13.408 -7.359,8.38 h -1.749 v -8.38 h -6.012 V 11.003 H 0.656 c 5.284,0 8.781,-3.207 8.781,-7.979 0,-4.008 -2.478,-6.886 -6.413,-7.761 l 7.652,-8.671 z"
         style="fill:#cccccc;fill-opacity:1;fill-rule:nonzero;stroke:none"
         transform="matrix(1.3333333,0,0,-1.3333333,387.708,202.89466)"
         clip-path="url(#clipPath18)" />
      <path
         id="path19"
         d="M 0,0 H 7.542 C 6.995,1.968 5.538,2.878 3.862,2.878 2.222,2.878 0.547,1.859 0,0 M 13.299,-3.57 H -0.109 c 0.474,-2.186 1.968,-3.535 3.935,-3.535 1.348,0 2.915,0.328 3.899,2.114 l 5.173,-1.057 c -1.567,-3.861 -4.882,-5.72 -9.072,-5.72 -5.283,0 -9.655,3.899 -9.655,9.692 0,5.756 4.372,9.691 9.691,9.691 5.174,0 9.327,-3.716 9.437,-9.691 z"
         style="fill:#cccccc;fill-opacity:1;fill-rule:nonzero;stroke:none"
         transform="matrix(1.3333333,0,0,-1.3333333,408.9332,205.81013)"
         clip-path="url(#clipPath20)" />
      <path
         id="path21"
         d="m 0,0 v -11.44 h -5.794 v 10.202 c 0,2.076 -1.347,3.388 -3.06,3.388 -2.15,0 -3.57,-1.567 -3.57,-4.627 v -8.963 h -5.829 v 10.202 c 0,2.076 -1.348,3.388 -3.097,3.388 -2.114,0 -3.498,-1.567 -3.498,-4.627 v -8.963 h -5.829 V 6.85 h 5.829 V 5.173 c 1.238,1.385 3.024,2.224 5.392,2.224 2.55,0 4.737,-1.094 5.975,-3.097 1.458,1.894 3.643,3.097 6.486,3.097 C -3.097,7.397 0,4.445 0,0"
         style="fill:#cccccc;fill-opacity:1;fill-rule:nonzero;stroke:none"
         transform="matrix(1.3333333,0,0,-1.3333333,470.38293,205.51853)"
         clip-path="url(#clipPath22)" />
      <path
         id="path23"
         d="m 0,0 c 0,2.842 -2.149,4.736 -4.408,4.736 -2.369,0 -4.518,-1.894 -4.518,-4.736 0,-2.878 2.149,-4.736 4.518,-4.736 C -2.149,-4.736 0,-2.878 0,0 m 5.611,0 c 0,-5.793 -4.59,-9.655 -10.019,-9.655 -5.538,0 -10.129,3.862 -10.129,9.655 0,5.757 4.591,9.618 10.129,9.618 C 1.021,9.618 5.611,5.757 5.611,0"
         style="fill:#cccccc;fill-opacity:1;fill-rule:nonzero;stroke:none"
         transform="matrix(1.3333333,0,0,-1.3333333,492.2364,208.57853)"
         clip-path="url(#clipPath24)" />
      <path
         id="path25"
         d="m 0,0 c -1.42,-0.765 -2.914,-1.349 -4.991,-1.349 -4.555,0 -7.287,2.478 -7.287,7.288 v 6.921 h -3.316 v 4.628 h 3.316 v 5.392 h 5.829 v -5.392 h 5.392 V 12.86 H -6.449 V 6.521 c 0,-1.894 0.911,-2.66 2.441,-2.66 0.802,0 1.895,0.292 2.66,0.729 z"
         style="fill:#cccccc;fill-opacity:1;fill-rule:nonzero;stroke:none"
         transform="matrix(1.3333333,0,0,-1.3333333,520.60306,219.70253)"
         clip-path="url(#clipPath26)" />
      <path
         id="path27"
         d="M 0,0 H 7.542 C 6.995,1.968 5.538,2.878 3.862,2.878 2.222,2.878 0.547,1.859 0,0 M 13.299,-3.57 H -0.109 c 0.474,-2.186 1.968,-3.535 3.935,-3.535 1.348,0 2.915,0.328 3.899,2.114 l 5.173,-1.057 c -1.566,-3.861 -4.882,-5.72 -9.072,-5.72 -5.283,0 -9.655,3.899 -9.655,9.692 0,5.756 4.372,9.691 9.691,9.691 5.174,0 9.327,-3.716 9.437,-9.691 z"
         style="fill:#cccccc;fill-opacity:1;fill-rule:nonzero;stroke:none"
         transform="matrix(1.3333333,0,0,-1.3333333,528.03373,205.81013)"
         clip-path="url(#clipPath28)" />
      <path
         id="path29"
         d="m 0,0 c 0.109,-0.874 0.146,-1.602 0.146,-2.222 0,-7.396 -5.284,-12.716 -12.643,-12.716 -7.395,0 -13.152,5.575 -13.152,12.752 0,7.142 5.72,12.752 13.043,12.752 5.429,0 10.202,-2.55 11.914,-7.323 L -6.485,1.567 c -1.421,2.769 -3.752,3.498 -6.121,3.498 -3.972,0 -6.995,-3.134 -6.995,-7.251 0,-4.153 3.097,-7.286 7.177,-7.286 3.206,0 5.538,1.676 6.449,4.372 h -7.469 V 0 Z"
         style="fill:#cccccc;fill-opacity:1;fill-rule:nonzero;stroke:none"
         transform="matrix(1.3333333,0,0,-1.3333333,406.31426,243.53186)"
         clip-path="url(#clipPath30)" />
      <path
         id="path31"
         d="m 0,0 h -5.83 v 1.749 c -1.384,-1.458 -3.315,-2.296 -5.611,-2.296 -4.262,0 -7.105,3.025 -7.105,7.616 V 18.29 h 5.794 V 8.307 c 0,-2.15 1.275,-3.607 3.133,-3.607 2.296,0 3.789,1.567 3.789,5.101 V 18.29 H 0 Z"
         style="fill:#cccccc;fill-opacity:1;fill-rule:nonzero;stroke:none"
         transform="matrix(1.3333333,0,0,-1.3333333,434.19466,262.71986)"
         clip-path="url(#clipPath32)" />
      <path
         id="path33"
         d="m 0,0 c 0,2.805 -2.113,4.736 -4.482,4.736 -2.55,0 -4.409,-1.931 -4.409,-4.736 0,-2.842 1.859,-4.736 4.409,-4.736 C -2.113,-4.736 0,-2.842 0,0 M 5.829,-9.145 H 0 v 1.457 c -1.421,-1.274 -3.316,-2.004 -5.684,-2.004 -4.846,0 -8.927,3.899 -8.927,9.692 0,5.757 4.081,9.692 8.927,9.692 2.368,0 4.263,-0.73 5.684,-2.005 v 1.458 h 5.829 z"
         style="fill:#cccccc;fill-opacity:1;fill-rule:nonzero;stroke:none"
         transform="matrix(1.3333333,0,0,-1.3333333,456.48786,250.5264)"
         clip-path="url(#clipPath34)" />
      <path
         id="path35"
         d="m 0,0 -0.254,-5.829 h -1.057 c -4.081,0 -6.303,-2.113 -6.303,-6.85 v -5.72 h -5.83 v 18.29 h 5.83 v -3.498 c 1.312,2.186 3.315,3.752 6.303,3.752 C -0.801,0.145 -0.437,0.109 0,0"
         style="fill:#cccccc;fill-opacity:1;fill-rule:nonzero;stroke:none"
         transform="matrix(1.3333333,0,0,-1.3333333,486.60266,238.1872)"
         clip-path="url(#clipPath36)" />
      <path
         id="path37"
         d="m 0,0 c 0,2.805 -2.113,4.736 -4.482,4.736 -2.55,0 -4.409,-1.931 -4.409,-4.736 0,-2.842 1.859,-4.736 4.409,-4.736 C -2.113,-4.736 0,-2.842 0,0 M 5.829,-9.145 H 0 v 1.457 c -1.421,-1.274 -3.316,-2.004 -5.684,-2.004 -4.846,0 -8.927,3.899 -8.927,9.692 0,5.757 4.081,9.692 8.927,9.692 2.368,0 4.263,-0.73 5.684,-2.005 v 9.401 h 5.829 z"
         style="fill:#cccccc;fill-opacity:1;fill-rule:nonzero;stroke:none"
         transform="matrix(1.3333333,0,0,-1.3333333,506.2268,250.5264)"
         clip-path="url(#clipPath38)" />
      <path
         id="path39"
         d="m 387.563,155.788 h 5.829 v -18.29 h -5.829 z m 6.303,5.392 c 0,-1.859 -1.421,-3.243 -3.388,-3.243 -1.968,0 -3.353,1.384 -3.353,3.243 0,1.785 1.385,3.315 3.353,3.315 1.967,0 3.388,-1.53 3.388,-3.315"
         style="fill:#cccccc;fill-opacity:1;fill-rule:nonzero;stroke:none"
         transform="matrix(1.3333333,0,0,-1.3333333,2.0545288,446.04986)"
         clip-path="url(#clipPath40)" />
      <path
         id="path41"
         d="m 0,0 c 0,2.805 -2.113,4.736 -4.482,4.736 -2.55,0 -4.409,-1.931 -4.409,-4.736 0,-2.842 1.859,-4.736 4.409,-4.736 C -2.113,-4.736 0,-2.842 0,0 M 5.829,-9.145 H 0 v 1.457 c -1.421,-1.274 -3.316,-2.004 -5.684,-2.004 -4.846,0 -8.927,3.899 -8.927,9.692 0,5.757 4.081,9.692 8.927,9.692 2.368,0 4.263,-0.73 5.684,-2.005 v 1.458 h 5.829 z"
         style="fill:#cccccc;fill-opacity:1;fill-rule:nonzero;stroke:none"
         transform="matrix(1.3333333,0,0,-1.3333333,549.26253,250.5264)"
         clip-path="url(#clipPath42)" />
      <path
         id="path43"
         d="m 0,0 v -11.221 h -5.793 v 9.983 c 0,2.149 -1.275,3.606 -3.133,3.606 -2.295,0 -3.789,-1.566 -3.789,-5.1 v -8.489 h -5.83 v 18.29 h 5.83 v -1.75 c 1.384,1.458 3.315,2.296 5.61,2.296 C -2.842,7.615 0,4.591 0,0"
         style="fill:#cccccc;fill-opacity:1;fill-rule:nonzero;stroke:none"
         transform="matrix(1.3333333,0,0,-1.3333333,586.1772,247.758)"
         clip-path="url(#clipPath44)" />
    </g>
    <g
       id="g56"
       inkscape:export-filename="G.png"
       inkscape:export-xdpi="1525.1499"
       inkscape:export-ydpi="1525.1499"
       style="display:inline"
       transform="translate(-219.44294,-120.0371)">
      <path
         id="path2"
         d="m 353.2296,236.04013 v 0.0653 l 0.0453,-0.0267 v -0.0653 z"
         style="fill:#00a650;fill-opacity:1;fill-rule:nonzero;stroke:none;stroke-width:1.33333" />
      <path
         id="path3"
         d="m 310.70333,134.38947 -0.024,0.0133 -24.028,13.87334 -0.0693,0.04 42.59466,24.592 v -0.08 -27.74534 -0.028 z"
         style="fill:#a6319e;fill-opacity:1;fill-rule:nonzero;stroke:none;stroke-width:1.33333" />
      <path
         id="path4"
         d="m 286.65133,120.50293 -0.024,0.0133 -0.108,-0.0627 -24.028,13.87333 0.108,0.0627 24.052,13.88666 24.028,-13.87333 0.024,-0.0133 z"
         style="fill:#8d198f;fill-opacity:1;fill-rule:nonzero;stroke:none;stroke-width:1.33333" />
      <path
         id="path5"
         d="m 243.81533,222.17 -24.052,-13.88667 V 186.894 l 24.052,-13.88667 z"
         style="fill:#68329a;fill-opacity:1;fill-rule:nonzero;stroke:none;stroke-width:1.33333" />
      <path
         id="path6"
         d="m 353.2296,208.26733 v 0.056 l 0.0453,0.0267 v -0.10934 z"
         style="fill:#231f20;fill-opacity:1;fill-rule:nonzero;stroke:none;stroke-width:1.33333" />
      <path
         id="path7"
         d="m 353.1804,208.29493 0.0493,0.0293 v -0.0573 z"
         style="fill:#231f20;fill-opacity:1;fill-rule:nonzero;stroke:none;stroke-width:1.33333" />
      <path
         id="path8"
         d="m 329.1772,249.9264 v 0.0653 l 24.052,-13.88666 v -0.0653 z"
         style="fill:#f365ba;fill-opacity:1;fill-rule:nonzero;stroke:none;stroke-width:1.33333" />
      <path
         id="path9"
         d="m 329.1772,222.21013 v 27.716 l 24.00267,-13.85733 z"
         style="fill:#272b69;fill-opacity:1;fill-rule:nonzero;stroke:none;stroke-width:1.33333" />
      <path
         id="path10"
         d="m 329.1276,222.18133 0.0107,0.007 0.0387,-0.0227 v -0.012 z"
         style="fill:#231f20;fill-opacity:1;fill-rule:nonzero;stroke:none;stroke-width:1.33333" />
      <path
         id="path11"
         d="m 329.1384,222.18853 0.0387,0.0213 v -0.044 z"
         style="fill:#231f20;fill-opacity:1;fill-rule:nonzero;stroke:none;stroke-width:1.33333" />
      <path
         id="path12"
         d="m 329.1772,194.4372 v 27.716 l 24.00267,-13.85733 z"
         style="fill:#1c1d44;fill-opacity:1;fill-rule:nonzero;stroke:none;stroke-width:1.33333" />
      <path
         id="path13"
         d="m 353.2292,208.3236 -0.0493,-0.028 -24.00267,13.85733 v 0.0133 0.044 l 24.00267,13.85733 0.0493,-0.028 0.0453,-0.0267 V 208.3502 Z"
         style="fill:#232555;fill-opacity:1;fill-rule:nonzero;stroke:none;stroke-width:1.33333" />
      <path
         id="path14"
         d="m 353.2296,159.03733 0.0453,-0.0267 v -0.016 l -0.0453,-0.0253 z"
         style="fill:#231f20;fill-opacity:1;fill-rule:nonzero;stroke:none;stroke-width:1.33333" />
      <path
         id="path15"
         d="m 329.1772,145.0552 v 0.028 27.74533 l 0.0827,0.048 23.96933,-13.83866 v -0.0693 -0.0267 z"
         style="fill:#c045aa;fill-opacity:1;fill-rule:nonzero;stroke:none;stroke-width:1.33333" />
      <path
         id="path16"
         d="m 310.54667,183.68093 -24.052,13.88667 42.63333,24.61466 0.0493,-0.0293 v -27.716 z"
         style="fill:#25296a;fill-opacity:1;fill-rule:nonzero;stroke:none;stroke-width:1.33333" />
      <path
         id="path45"
         d="M 0,0 -18.039,10.415 -36.078,0 l -0.015,-0.008 18.039,-10.415 0.043,-0.025 0.014,0.008 18.04,10.415 z"
         style="fill:#392972;fill-opacity:1;fill-rule:nonzero;stroke:none"
         transform="matrix(1.3333333,0,0,-1.3333333,310.534,260.69)"
         clip-path="url(#clipPath46)" />
      <path
         id="path47"
         d="m 0,0 -0.008,0.005 -31.965,-18.455 -0.02,-0.012 18.039,-10.414 0.043,-0.025 13.94,8.048 v 0.049 20.787 z"
         style="fill:#31338b;fill-opacity:1;fill-rule:nonzero;stroke:none"
         transform="matrix(1.3333333,0,0,-1.3333333,329.1388,222.188)"
         clip-path="url(#clipPath48)" />
      <path
         id="path49"
         d="M 0,0 -0.081,0.047 -14.088,-8.04 v -0.094 -20.829 l 0.035,0.02 32.04,18.498 0.052,0.03 z"
         style="fill:#761f85;fill-opacity:1;fill-rule:nonzero;stroke:none"
         transform="matrix(1.3333333,0,0,-1.3333333,262.5992,134.38947)"
         clip-path="url(#clipPath50)" />
      <path
         id="path51"
         d="m 0,0 v -0.094 -20.83 l 18.039,10.415 v 20.83 0.094 z"
         style="fill:#6c2075;fill-opacity:1;fill-rule:nonzero;stroke:none"
         transform="matrix(1.3333333,0,0,-1.3333333,219.7632,158.99573)"
         clip-path="url(#clipPath52)" />
      <path
         id="path53"
         d="m 0,0 v -20.83 -0.017 l 18.039,-10.415 v 0.017 20.83 z"
         style="fill:#5e2590;fill-opacity:1;fill-rule:nonzero;stroke:none"
         transform="matrix(1.3333333,0,0,-1.3333333,219.7632,208.28347)"
         clip-path="url(#clipPath54)" />
      <path
         id="path55"
         d="m 0,0 v -20.83 -0.017 l 13.946,-8.051 0.015,0.008 L 32,-18.475 Z"
         style="fill:#4a287e;fill-opacity:1;fill-rule:nonzero;stroke:none"
         transform="matrix(1.3333333,0,0,-1.3333333,243.81533,222.17)"
         clip-path="url(#clipPath56)" />
    </g>
    <g
       id="group-MC3"
       style="display:inline" />
  </g>
</svg>
